# xmcd CD database file
#
# Track frame offsets:
#	150
#	10825
#	24577
#	37960
#	50557
#	62737
#	72567
#	82257
#	97137
#	109947
#
# Disc length: 1671 seconds
#
# Revision: 2
# Processed by: cddbd v1.5.1PL2 Copyright (c) Steve Scherf et al.
# Submitted via: CDex 1.51
#
DISCID=8b06850a
DTITLE=Waylon Jennings - Super Hits
DYEAR=1996
DGENRE=Country
TTITLE0=Only Daddy That'll Walk the Line
TTITLE1=Good Hearted Woman
TTITLE2=Amanda
TTITLE3=Ramblin' Man
TTITLE4=Clyde
TTITLE5=The Wurlitzer Prize
TTITLE6=Theme from the Dukes of Hazzard
TTITLE7=Luckenbach, TX
TTITLE8=Just to Satisfy You
TTITLE9=Lucille
EXTD=YEAR: 1996
EXTT0=
EXTT1=
EXTT2=
EXTT3=
EXTT4=
EXTT5=
EXTT6=
EXTT7=
EXTT8=
EXTT9=
PLAYORDER=
